<?xml version="1.0" standalone="no"?><!DOCTYPE svg PUBLIC "-// W3C// DTD SVG 1.1// EN" "http://www.w3.org/Graphics/SVG/1.1/DTD/svg11.dtd"><svg t="1711526394826" class="icon" viewBox="0 0 1024 1024" version="1.1" xmlns="http://www.w3.org/2000/svg" p-id="9739" xmlns:xlink="http://www.w3.org/1999/xlink" width="200" height="200"><path d="M911.904 64H112.096a80 80 0 0 0-80 80V704a80 80 0 0 0 80 80h359.936V864h-160v80h400V864h-160v-80h359.872a80 80 0 0 0 80-80V144a80 80 0 0 0-80-80z m0 640h-800s-0.16-560 0-560h800s0.256 560 0 560z" fill="#00DCDB" p-id="9740"></path><path d="M460.256 502.4H184.128c-15.072 0-27.68 18.56-27.68 41.44V544c0 22.88 12.448 41.344 27.68 41.28h276.128c15.264 0 27.616-18.56 27.616-41.44s-12.384-41.44-27.616-41.44z" fill="#00DCDB" p-id="9741"></path><path d="M446.432 263.264H197.984a41.6 41.6 0 0 0-41.6 41.44v0.16a41.408 41.408 0 0 0 41.6 41.28h248.448a41.6 41.6 0 0 0 41.44-41.44 41.6 41.6 0 0 0-41.44-41.44z" fill="#00DCDB" p-id="9742"></path><path d="M620.416 281.504l-96.768 291.84h46.784l24.992-83.2h101.504l24.576 83.2h48.8l-96.8-291.84z m65.408 172.48h-79.712l11.904-39.232c9.6-31.712 18.624-63.84 26.944-97.152h1.6c9.12 32.928 17.856 65.44 27.744 97.152z" fill="#00DCDB" p-id="9743"></path><path d="M797.952 281.408h45.984v291.84h-45.984z" fill="#00DCDB" p-id="9744"></path></svg>